# xmcd CD database file
#
# Track frame offsets:
#	150
#	16306
#	38942
#	68186
#	83819
#	94909
#	121943
#	151991
#	174188
#	211448
#	253628
#
# Disc length: 3771 seconds
#
# Revision: 0
# Processed by: cddbd v1.5.2PL0 Copyright (c) Steve Scherf et al.
# Submitted via: CDex 1.51
#
DISCID=890eb90b
DTITLE=Various Artist - Eckhart Tolle's music for inner stillness
DYEAR=2008
DGENRE=New Age
TTITLE0=Karitas
TTITLE1=Searching (Shirabe)
TTITLE2=For as Long as Space Endures
TTITLE3=A Thousand Whispers
TTITLE4=The Song of the Universal Light (part 1)
TTITLE5=The Song of the Universal Light (part 2)
TTITLE6=Epiphany
TTITLE7=Molecules
TTITLE8=Hawk's Circling
TTITLE9=Synchronicity High-tech Meditation: Musical Transendence
TTITLE10=Ocean
EXTD=YEAR: 2008
EXTT0=
EXTT1=
EXTT2=
EXTT3=
EXTT4=
EXTT5=
EXTT6=
EXTT7=
EXTT8=
EXTT9=
EXTT10=
PLAYORDER=
